<svg width="396" height="568" viewBox="0 0 396 568" fill="none" xmlns="http://www.w3.org/2000/svg">
<path d="M395.89 197.95C395.89 320.68 197.95 567.78 197.95 567.78C197.95 567.78 0 333.38 0 197.95C0 88.6201 88.6201 0 197.95 0C307.28 0 395.89 88.6201 395.89 197.95Z" fill="#82C180"/>
<path d="M138.373 88.0464C146.002 89.7324 152.674 94.9197 156.676 102.275L164.937 118.095C168.398 112.499 169.715 105.37 168.592 97.5163C167.322 88.6397 163.056 79.816 156.583 72.6783C150.11 65.5347 142.111 60.8291 134.065 59.431C128.288 58.4246 122.955 59.2008 118.432 61.5506L127.39 79.6338C129.706 83.8812 133.751 87.0242 138.373 88.0464Z" fill="white"/>
<path d="M118.025 115.211C124.498 122.354 132.494 127.06 140.543 128.458C142.223 128.752 143.869 128.899 145.469 128.899C149.516 128.899 153.215 127.865 156.513 126.068L147.274 108.373C144.899 104.008 140.855 100.865 136.232 99.8427C128.604 98.1567 121.931 92.9694 117.929 85.6144L109.901 69.4132C106.262 75.0631 104.865 82.3418 106.014 90.3728C107.287 99.2494 111.55 108.073 118.025 115.211Z" fill="white"/>
<path d="M209.235 197.608C209.562 197.608 209.943 197.608 210.271 197.669C209.671 196.766 208.962 195.924 208.253 195.142C208.907 192.856 209.235 190.51 209.235 188.104C209.235 174.809 199.474 164.041 187.422 164.041C184.75 164.041 182.133 164.583 179.733 165.605C176.134 157.544 168.663 152.01 160.156 152.01C157.484 152.01 154.867 152.551 152.468 153.574C148.868 145.513 141.398 139.979 132.891 139.979C120.839 139.979 111.078 150.746 111.078 164.041V164.823C107.316 165.846 103.826 168.071 101.099 171.139C99.0268 170.418 96.9003 170.057 94.7189 170.057C82.6674 170.057 72.9064 180.825 72.9064 194.119C72.9064 194.781 72.961 195.503 73.0156 196.225C72.6338 196.646 72.3067 197.127 71.9795 197.608L209.235 197.608Z" fill="white"/>
<path d="M209.234 209.64H67.4531C64.4416 209.64 62 212.33 62 215.655V233.702C62 280.141 96.2471 317.921 138.344 317.921C180.44 317.921 214.688 280.141 214.688 233.702V215.655C214.688 212.33 212.246 209.64 209.234 209.64Z" fill="white"/>
<path d="M309.354 209.64H224.612C225.267 211.504 225.594 213.549 225.594 215.655V233.702C225.594 238.875 225.212 243.929 224.449 248.861C224.449 248.861 304.828 264.983 304.828 264.983C312.195 266.434 319.787 264.265 325.55 258.968C331.33 253.674 334.656 245.853 334.656 237.552C334.656 222.152 323.314 209.64 309.354 209.64Z" fill="white"/>
</svg>
