<svg width="396" height="568" viewBox="0 0 396 568" fill="none" xmlns="http://www.w3.org/2000/svg">
<path d="M395.89 197.95C395.89 320.68 197.95 567.78 197.95 567.78C197.95 567.78 0 333.38 0 197.95C0 88.6201 88.6201 0 197.95 0C307.28 0 395.89 88.6201 395.89 197.95Z" fill="#82C180"/>
<path d="M99.5868 332.103L66 298.517L261.462 103.055L295.048 136.642L99.5868 332.103Z" fill="white"/>
<path d="M337.922 130.144H328.136V188.081H337.922V130.144Z" fill="white"/>
<path d="M362 154.221H304.058V164.008H362V154.221Z" fill="white"/>
<path d="M276.095 205.152H266.309V250.435H276.095V205.152Z" fill="white"/>
<path d="M293.846 222.903H248.562V232.689H293.846V222.903Z" fill="white"/>
<path d="M213.094 65.3889H203.307V111.472H213.094V65.3889Z" fill="white"/>
<path d="M231.242 83.5328H185.163V93.3193H231.242V83.5328Z" fill="white"/>
<rect x="190.092" y="154" width="72" height="14.272" transform="rotate(45 190.092 154)" fill="#82C180"/>
</svg>
