<svg width="396" height="568" viewBox="0 0 396 568" fill="none" xmlns="http://www.w3.org/2000/svg">
<path d="M395.89 197.95C395.89 320.68 197.95 567.78 197.95 567.78C197.95 567.78 0 333.38 0 197.95C0 88.6201 88.6201 0 197.95 0C307.28 0 395.89 88.6201 395.89 197.95Z" fill="#82C180"/>
<path d="M118.38 267.362L174.948 199.333C184.662 182.537 208.54 182.537 218.254 199.333L274.822 267.362C284.673 284.396 272.599 305.875 253.166 305.875H140.036C120.603 305.875 108.529 284.4 118.38 267.362ZM92.1176 158.236C78.7131 163.793 75.2171 185.824 84.3181 207.441C93.4191 229.058 111.659 242.073 125.064 236.516C138.468 230.958 141.964 208.928 132.863 187.31C123.762 165.693 105.522 152.678 92.1176 158.236ZM184.125 126.363C190.737 148.892 184.79 170.372 170.849 174.343C156.908 178.314 140.245 163.271 133.633 140.741C127.021 118.212 132.968 96.7325 146.909 92.7615C160.855 88.7905 177.518 103.834 184.125 126.363ZM263.137 187.31C254.04 208.928 257.532 230.953 270.936 236.516C284.341 242.073 302.585 229.058 311.682 207.441C320.778 185.824 317.287 163.798 303.882 158.236C290.478 152.678 272.238 165.693 263.137 187.31ZM249.086 92.7615C263.027 96.7325 268.974 118.212 262.362 140.741C255.75 163.271 239.092 178.314 225.146 174.343C211.205 170.372 205.258 148.892 211.87 126.363C218.482 103.834 235.145 88.7905 249.086 92.7615Z" fill="white"/>
</svg>
