<svg width="396" height="568" viewBox="0 0 396 568" fill="none" xmlns="http://www.w3.org/2000/svg">
<path d="M395.89 197.95C395.89 320.68 197.95 567.78 197.95 567.78C197.95 567.78 0 333.38 0 197.95C0 88.6201 88.6201 0 197.95 0C307.28 0 395.89 88.6201 395.89 197.95Z" fill="#82C180"/>
<path d="M197.5 186.64C166.4 186.64 141.1 211.94 141.1 243.04C141.1 274.14 166.4 299.44 197.5 299.44C228.6 299.44 253.9 274.14 253.9 243.04C253.9 211.94 228.6 186.64 197.5 186.64ZM197.5 288.16C172.621 288.16 152.38 267.919 152.38 243.04C152.38 218.161 172.621 197.92 197.5 197.92C222.379 197.92 242.62 218.161 242.62 243.04C242.62 267.919 222.379 288.16 197.5 288.16Z" fill="white"/>
<path d="M197.5 209.2C178.84 209.2 163.66 224.38 163.66 243.04C163.66 246.155 166.185 248.68 169.3 248.68C172.415 248.68 174.94 246.155 174.94 243.04C174.94 230.601 185.061 220.48 197.5 220.48C200.615 220.48 203.14 217.955 203.14 214.84C203.14 211.725 200.615 209.2 197.5 209.2Z" fill="white"/>
<path d="M321.58 118.96H304.66V102.04C304.66 98.9381 302.122 96.4 299.02 96.4H242.62C239.518 96.4 236.98 98.9381 236.98 102.04V118.96H177.76L162.532 98.6558C161.46 97.2458 159.768 96.4 158.02 96.4H112.9C111.152 96.4 109.46 97.2458 108.388 98.6558L93.16 118.96H73.42C64.1139 118.96 56.5 126.574 56.5 135.88V282.52C56.5 291.826 64.1139 299.44 73.42 299.44H142.341C156.61 313.371 176.068 322 197.5 322C218.932 322 238.39 313.371 252.659 299.44H321.58C330.886 299.44 338.5 291.826 338.5 282.52V135.88C338.5 126.574 330.886 118.96 321.58 118.96ZM248.26 107.68H293.38V118.96H248.26V107.68ZM73.42 288.16C70.3181 288.16 67.78 285.622 67.78 282.52V265.6H121.868C124.293 273.778 128.015 281.336 132.809 288.16H73.42ZM197.5 310.72C160.163 310.72 129.82 280.377 129.82 243.04C129.82 205.703 160.163 175.36 197.5 175.36C234.837 175.36 265.18 205.703 265.18 243.04C265.18 280.377 234.837 310.72 197.5 310.72ZM327.22 282.52C327.22 285.622 324.682 288.16 321.58 288.16H262.191C266.985 281.336 270.707 273.778 273.132 265.6H327.22V282.52ZM327.22 254.32H275.558C276.065 250.597 276.46 246.875 276.46 243.04C276.46 199.499 241.041 164.08 197.5 164.08C153.959 164.08 118.54 199.499 118.54 243.04C118.54 246.875 118.935 250.597 119.442 254.32H67.78V135.88C67.78 132.778 70.3181 130.24 73.42 130.24H95.98C97.7284 130.24 99.4203 129.394 100.492 127.984L115.72 107.68H155.2L170.428 127.984C171.5 129.394 173.192 130.24 174.94 130.24H321.58C324.682 130.24 327.22 132.778 327.22 135.88V254.32Z" fill="white"/>
<path d="M135.46 85.12C138.575 85.12 141.1 82.5947 141.1 79.48V45.64C141.1 42.5253 138.575 40 135.46 40C132.345 40 129.82 42.5253 129.82 45.64V79.48C129.82 82.5947 132.345 85.12 135.46 85.12Z" fill="white"/>
<path d="M107.854 82.0027C109.215 84.7239 112.711 85.8806 115.422 84.5253C118.209 83.1319 119.338 79.7445 117.944 76.9576L106.664 54.3976C105.274 51.6134 101.895 50.4843 99.0966 51.875C96.3097 53.2685 95.1805 56.6558 96.574 59.4427C96.574 59.4427 107.817 81.9273 107.854 82.0027Z" fill="white"/>
<path d="M155.497 84.5253C158.115 85.8342 161.667 84.7987 163.065 82.0027L174.345 59.4427C175.738 56.6558 174.609 53.2685 171.822 51.875C169.027 50.4843 165.648 51.6133 164.254 54.3976L152.974 76.9576C151.581 79.7439 152.71 83.1301 155.497 84.5253Z" fill="white"/>
<path d="M299.02 141.52C289.69 141.52 282.1 149.11 282.1 158.44C282.1 167.77 289.69 175.36 299.02 175.36C308.35 175.36 315.94 167.77 315.94 158.44C315.94 149.11 308.35 141.52 299.02 141.52ZM299.02 164.08C295.911 164.08 293.38 161.549 293.38 158.44C293.38 155.331 295.911 152.8 299.02 152.8C302.129 152.8 304.66 155.331 304.66 158.44C304.66 161.549 302.129 164.08 299.02 164.08Z" fill="white"/>
<path d="M299.02 186.64C289.69 186.64 282.1 194.23 282.1 203.56C282.1 212.89 289.69 220.48 299.02 220.48C308.35 220.48 315.94 212.89 315.94 203.56C315.94 194.23 308.35 186.64 299.02 186.64ZM299.02 209.2C295.911 209.2 293.38 206.669 293.38 203.56C293.38 200.451 295.911 197.92 299.02 197.92C302.129 197.92 304.66 200.451 304.66 203.56C304.66 206.669 302.129 209.2 299.02 209.2Z" fill="white"/>
<path d="M118.54 147.16H84.7001C81.5854 147.16 79.0601 149.685 79.0601 152.8C79.0601 155.915 81.5854 158.44 84.7001 158.44H118.54C121.655 158.44 124.18 155.915 124.18 152.8C124.18 149.685 121.655 147.16 118.54 147.16Z" fill="white"/>
<path d="M118.54 169.72H84.7001C81.5854 169.72 79.0601 172.245 79.0601 175.36C79.0601 178.475 81.5854 181 84.7001 181H118.54C121.655 181 124.18 178.475 124.18 175.36C124.18 172.245 121.655 169.72 118.54 169.72Z" fill="white"/>
</svg>
