<svg width="396" height="568" viewBox="0 0 396 568" fill="none" xmlns="http://www.w3.org/2000/svg">
<path d="M395.89 197.95C395.89 320.68 197.95 567.78 197.95 567.78C197.95 567.78 0 333.38 0 197.95C0 88.6201 88.6201 0 197.95 0C307.28 0 395.89 88.6201 395.89 197.95Z" fill="#82C180"/>
<path d="M117.766 84C115.088 84.5049 113.156 86.8759 113.2 89.62V168.3C113.2 185.467 121.762 195.719 129.357 202.02C133.155 205.159 136.69 207.64 138.841 209.572C140.993 211.504 141.3 212.294 141.3 213.26C141.3 218.595 139.895 234.335 138.49 251.722C137.085 269.109 135.68 288.471 135.68 303.18C135.68 329.699 138.117 344.32 142.705 353.409C144.988 357.953 148.083 361.114 151.486 362.892C154.889 364.671 158.314 365 160.97 365C163.626 365 167.051 364.671 170.454 362.892C173.856 361.114 176.952 357.953 179.235 353.409C183.823 344.32 186.26 329.699 186.26 303.18C186.26 288.471 184.855 269.109 183.45 251.722C182.045 234.335 180.64 218.595 180.64 213.26C180.64 212.294 180.969 211.46 183.099 209.572C185.228 207.684 188.785 205.489 192.582 202.371C200.2 196.137 208.74 185.709 208.74 168.3V89.62C208.74 86.5246 206.215 84 203.12 84H186.26C183.165 84 180.64 86.5246 180.64 89.62V148.63C180.64 149.837 179.037 151.44 177.83 151.44C176.623 151.44 175.02 149.837 175.02 148.63V89.62C175.02 86.5246 172.495 84 169.4 84H152.54C152.364 84 152.189 84 152.013 84C149.115 84.2634 146.898 86.7002 146.92 89.62V148.63C146.92 149.837 145.317 151.44 144.11 151.44C142.903 151.44 141.3 149.837 141.3 148.63V89.62C141.3 86.5246 138.775 84 135.68 84H118.82C118.644 84 118.469 84 118.293 84C118.117 84 117.942 84 117.766 84ZM224.546 84C221.868 84.5049 219.936 86.8759 219.98 89.62V157.06C219.98 246.739 214.36 265.969 214.36 297.56C214.36 326.494 216.336 342.322 220.507 352.179C222.592 357.097 225.49 360.697 229.112 362.717C232.735 364.737 236.467 365 239.65 365C242.833 365 246.565 364.737 250.187 362.717C253.81 360.697 256.708 357.097 258.793 352.179C262.964 342.322 264.94 326.494 264.94 297.56C264.94 281.073 260.374 269.35 255.983 260.503C251.592 251.656 248.08 245.773 248.08 241.36C248.08 237.145 249.595 234.05 252.295 230.471C254.995 226.893 259.035 223.183 263.359 218.88C272.031 210.296 281.8 198.529 281.8 179.54C281.8 168.893 280.395 146.083 273.019 125.096C269.331 114.603 264.216 104.526 256.51 96.8206C248.804 89.1151 238.289 84 225.6 84C225.424 84 225.249 84 225.073 84C224.897 84 224.722 84 224.546 84Z" fill="white"/>
</svg>
